name rise35.5848peak51.9257fall54.8793.mot
datacolumns 19
datarows 32
range 13.02827800000000 13.07994900000000
endheader
time	ground_force1_vx	ground_force1_vy	ground_force1_vz	ground_force1_px	ground_force1_py	ground_force1_pz	ground_force2_vx	ground_force2_vy	ground_force2_vz	ground_force2_px	ground_force2_py	ground_force2_pz	ground_torque1_x	ground_torque1_y	ground_torque1_z	ground_torque2_x	ground_torque2_y	ground_torque2_z	
13.02827800000000	-8.33706200000000	40.96734500000000	-7.34134100000000	0.27624800000000	0.00000000000000	0.10984900000000	-43.70754900000000	791.89142800000002	-56.65607600000000	0.09919500000000	0.00000000000000	-0.08663200000000	0.00000000000000	-3.57646000000000	0.00000000000000	0.00000000000000	-17.99235100000000	0.00000000000000	
13.02994500000000	-9.20899700000000	48.03892400000000	-8.28273600000000	0.28214500000000	0.00000000000000	0.11055200000000	-44.23545900000000	789.66293199999996	-56.23052700000000	0.09850400000000	0.00000000000000	-0.08653000000000	0.00000000000000	-4.11200000000000	0.00000000000000	0.00000000000000	-17.91677100000000	0.00000000000000	
13.03161700000000	-9.93984900000000	55.20420700000000	-9.14705600000000	0.28747500000000	0.00000000000000	0.11119100000000	-44.77880200000000	787.31484200000000	-55.78541100000000	0.09781600000000	0.00000000000000	-0.08642400000000	0.00000000000000	-4.62462800000000	0.00000000000000	0.00000000000000	-17.84348700000000	0.00000000000000	
13.03329200000000	-10.50659900000000	62.37084600000000	-9.91450400000000	0.29232600000000	0.00000000000000	0.11177400000000	-45.33762100000000	784.84460899999999	-55.32089000000000	0.09713300000000	0.00000000000000	-0.08631500000000	0.00000000000000	-5.10327200000000	0.00000000000000	0.00000000000000	-17.77258100000000	0.00000000000000	
13.03495000000000	-10.89492000000000	69.46870300000000	-10.57156500000000	0.29677100000000	0.00000000000000	0.11231100000000	-45.91186800000000	782.24961900000005	-54.83714300000000	0.09645300000000	0.00000000000000	-0.08620300000000	0.00000000000000	-5.53975500000000	0.00000000000000	0.00000000000000	-17.70411400000000	0.00000000000000	
13.03660900000000	-11.09911900000000	76.45203600000001	-11.11114000000000	0.30086600000000	0.00000000000000	0.11280700000000	-46.50139900000000	779.52719999999999	-54.33436500000000	0.09577800000000	0.00000000000000	-0.08608600000000	0.00000000000000	-5.92898300000000	0.00000000000000	0.00000000000000	-17.63813300000000	0.00000000000000	
13.03828400000000	-11.12139300000000	83.29931400000000	-11.53212800000000	0.30465800000000	0.00000000000000	0.11326900000000	-47.10597200000000	776.67462499999999	-53.81276700000000	0.09510800000000	0.00000000000000	-0.08596600000000	0.00000000000000	-6.26886200000000	0.00000000000000	0.00000000000000	-17.57465900000000	0.00000000000000	
13.03994600000000	-10.97056500000000	90.01107100000000	-11.83859000000000	0.30818400000000	0.00000000000000	0.11370000000000	-47.72524300000000	773.68912399999999	-53.27257800000000	0.09444200000000	0.00000000000000	-0.08584300000000	0.00000000000000	-6.55996900000000	0.00000000000000	0.00000000000000	-17.51369700000000	0.00000000000000	
13.04160900000000	-10.66050000000000	96.60631300000000	-12.03863600000000	0.31147800000000	0.00000000000000	0.11410400000000	-48.35876400000000	770.56788500000005	-52.71404300000000	0.09378200000000	0.00000000000000	-0.08571600000000	0.00000000000000	-6.80507100000000	0.00000000000000	0.00000000000000	-17.45522900000000	0.00000000000000	
13.04327800000000	-10.20838200000000	103.11803399999999	-12.14317700000000	0.31456400000000	0.00000000000000	0.11448400000000	-49.00598100000000	767.30807000000004	-52.13742400000000	0.09312700000000	0.00000000000000	-0.08558500000000	0.00000000000000	-7.00853500000000	0.00000000000000	0.00000000000000	-17.39921700000000	0.00000000000000	
13.04494500000000	-9.63302700000000	109.58836700000001	-12.16466100000000	0.31746500000000	0.00000000000000	0.11484300000000	-49.66623200000000	763.90682000000004	-51.54300200000000	0.09247700000000	0.00000000000000	-0.08545000000000	0.00000000000000	-7.17571900000000	0.00000000000000	0.00000000000000	-17.34560100000000	0.00000000000000	
13.04660900000000	-8.95334900000000	116.06382300000000	-12.11591200000000	0.32020100000000	0.00000000000000	0.11518300000000	-50.33874400000000	760.36126400000001	-50.93107300000000	0.09183400000000	0.00000000000000	-0.08531200000000	0.00000000000000	-7.31238200000000	0.00000000000000	0.00000000000000	-17.29429900000000	0.00000000000000	
13.04827600000000	-8.18709500000000	122.59098600000000	-12.00913300000000	0.32278600000000	0.00000000000000	0.11550600000000	-51.02263600000000	756.66853400000002	-50.30195200000000	0.09119700000000	0.00000000000000	-0.08517000000000	0.00000000000000	-7.42416100000000	0.00000000000000	0.00000000000000	-17.24520800000000	0.00000000000000	
13.04994100000000	-7.34988000000000	129.21293100000000	-11.85513000000000	0.32523400000000	0.00000000000000	0.11581300000000	-51.71691600000000	752.82577400000002	-49.65597500000000	0.09056700000000	0.00000000000000	-0.08502400000000	0.00000000000000	-7.51615200000000	0.00000000000000	0.00000000000000	-17.19820200000000	0.00000000000000	
13.05161400000000	-6.45456400000000	135.96650199999999	-11.66278700000000	0.32755700000000	0.00000000000000	0.11610600000000	-52.42048200000000	748.83015499999999	-48.99349300000000	0.08994400000000	0.00000000000000	-0.08487500000000	0.00000000000000	-7.59260500000000	0.00000000000000	0.00000000000000	-17.15313500000000	0.00000000000000	
13.05328500000000	-5.51094300000000	142.88051500000000	-11.43876800000000	0.32976400000000	0.00000000000000	0.11638600000000	-53.13212100000000	744.67888400000004	-48.31488000000000	0.08932800000000	0.00000000000000	-0.08472200000000	0.00000000000000	-7.65673400000000	0.00000000000000	0.00000000000000	-17.10984100000000	0.00000000000000	
13.05494600000000	-4.52573200000000	149.97485800000001	-11.18744700000000	0.33186400000000	0.00000000000000	0.11665500000000	-53.85051300000000	740.36922200000004	-47.62052600000000	0.08872000000000	0.00000000000000	-0.08456600000000	0.00000000000000	-7.71064100000000	0.00000000000000	0.00000000000000	-17.06812900000000	0.00000000000000	
13.05661000000000	-3.50278600000000	157.26038500000001	-10.91102400000000	0.33386300000000	0.00000000000000	0.11691300000000	-54.57423000000000	735.89849800000002	-46.91084500000000	0.08811900000000	0.00000000000000	-0.08440600000000	0.00000000000000	-7.75534300000000	0.00000000000000	0.00000000000000	-17.02779300000000	0.00000000000000	
13.05827800000000	-2.44349100000000	164.73947100000001	-10.60977800000000	0.33576700000000	0.00000000000000	0.11716000000000	-55.30174100000000	731.26412500000004	-46.18626900000000	0.08752600000000	0.00000000000000	-0.08424200000000	0.00000000000000	-7.79086800000000	0.00000000000000	0.00000000000000	-16.98860300000000	0.00000000000000	
13.05994400000000	-1.34728400000000	172.40707499999999	-10.28242400000000	0.33758200000000	0.00000000000000	0.11739900000000	-56.03141300000000	726.46361600000000	-45.44725000000000	0.08694100000000	0.00000000000000	-0.08407500000000	0.00000000000000	-7.81642100000000	0.00000000000000	0.00000000000000	-16.95031200000000	0.00000000000000	
13.06161600000000	-0.21221300000000	180.25211500000000	-9.92652400000000	0.33931200000000	0.00000000000000	0.11762900000000	-56.76151100000000	721.49460199999999	-44.69426400000000	0.08636500000000	0.00000000000000	-0.08390400000000	0.00000000000000	-7.83057200000000	0.00000000000000	0.00000000000000	-16.91265500000000	0.00000000000000	
13.06327500000000	0.96448800000000	188.25901800000000	-9.53890600000000	0.34096100000000	0.00000000000000	0.11785000000000	-57.49021000000000	716.35485300000005	-43.92780700000000	0.08579700000000	0.00000000000000	-0.08372900000000	0.00000000000000	-7.83146800000000	0.00000000000000	0.00000000000000	-16.87534800000000	0.00000000000000	
13.06494200000000	2.18587300000000	196.40929000000000	-9.11606900000000	0.34253100000000	0.00000000000000	0.11806500000000	-58.21559200000000	711.04228899999998	-43.14839500000000	0.08523800000000	0.00000000000000	-0.08355100000000	0.00000000000000	-7.81703600000000	0.00000000000000	0.00000000000000	-16.83809300000000	0.00000000000000	
13.06661400000000	3.45481700000000	204.68297799999999	-8.65453600000000	0.34402500000000	0.00000000000000	0.11827200000000	-58.93565300000000	705.55500800000004	-42.35656700000000	0.08468800000000	0.00000000000000	-0.08336900000000	0.00000000000000	-7.78516600000000	0.00000000000000	0.00000000000000	-16.80057400000000	0.00000000000000	
13.06828000000000	4.77365700000000	213.05995700000000	-8.15115200000000	0.34544400000000	0.00000000000000	0.11847300000000	-59.64831000000000	699.89129700000001	-41.55288300000000	0.08414600000000	0.00000000000000	-0.08318400000000	0.00000000000000	-7.73387100000000	0.00000000000000	0.00000000000000	-16.76246500000000	0.00000000000000	
13.06994900000000	6.14392500000000	221.52096100000000	-7.60329900000000	0.34679200000000	0.00000000000000	0.11866700000000	-60.35140400000000	694.04965400000003	-40.73792400000000	0.08361300000000	0.00000000000000	-0.08299600000000	0.00000000000000	-7.66140800000000	0.00000000000000	0.00000000000000	-16.72342200000000	0.00000000000000	
13.07161600000000	7.56618100000000	230.04835399999999	-7.00904600000000	0.34806800000000	0.00000000000000	0.11885600000000	-61.04271000000000	688.02880700000003	-39.91229200000000	0.08308800000000	0.00000000000000	-0.08280400000000	0.00000000000000	-7.56636300000000	0.00000000000000	0.00000000000000	-16.68309400000000	0.00000000000000	
13.07327800000000	9.03994900000000	238.62662200000000	-6.36722000000000	0.34927400000000	0.00000000000000	0.11903900000000	-61.71993800000000	681.82772399999999	-39.07661000000000	0.08257200000000	0.00000000000000	-0.08260900000000	0.00000000000000	-7.44770000000000	0.00000000000000	0.00000000000000	-16.64111900000000	0.00000000000000	
13.07494600000000	10.56373100000000	247.24260599999999	-5.67742100000000	0.35041100000000	0.00000000000000	0.11921700000000	-62.38074500000000	675.44563500000004	-38.23152300000000	0.08206400000000	0.00000000000000	-0.08241100000000	0.00000000000000	-7.30477600000000	0.00000000000000	0.00000000000000	-16.59712400000000	0.00000000000000	
13.07661100000000	12.13508300000000	255.88552600000000	-4.93997900000000	0.35147900000000	0.00000000000000	0.11938900000000	-63.02274000000000	668.88204099999996	-37.37769400000000	0.08156400000000	0.00000000000000	-0.08220900000000	0.00000000000000	-7.13733200000000	0.00000000000000	0.00000000000000	-16.55073200000000	0.00000000000000	
13.07827900000000	13.75074100000000	264.54682000000003	-4.15588000000000	0.35247900000000	0.00000000000000	0.11955700000000	-63.64349500000000	662.13672599999995	-36.51580800000000	0.08107200000000	0.00000000000000	-0.08200400000000	0.00000000000000	-6.94545600000000	0.00000000000000	0.00000000000000	-16.50156000000000	0.00000000000000	
13.07994900000000	15.40677800000000	273.21986099999998	-3.32666100000000	0.35340900000000	0.00000000000000	0.11972100000000	-64.24054800000000	655.20976499999995	-35.64656900000000	0.08058800000000	0.00000000000000	-0.08179600000000	0.00000000000000	-6.72954200000000	0.00000000000000	0.00000000000000	-16.44922100000000	0.00000000000000	
